<svg width="492" height="492" viewBox="0 0 492 492" fill="none" xmlns="http://www.w3.org/2000/svg">
<circle cx="246" cy="246" r="213" stroke="white" stroke-width="8"/>
<path d="M100.943 439.707C146.538 473.851 202.716 490.817 259.589 487.618C316.462 484.42 370.383 461.262 411.862 422.221C453.342 383.18 479.72 330.758 486.353 274.183C492.987 217.608 479.452 160.507 448.129 112.929C416.806 65.3514 369.705 30.3478 315.115 14.0794C260.525 -2.18897 201.946 1.32069 149.689 23.9906C97.4318 46.6606 54.8464 87.0376 29.4286 138.015C4.01083 188.992 -2.61015 247.301 10.7311 302.679" stroke="white" stroke-width="8" stroke-linecap="round"/>
<path d="M82.4238 225C81.9971 225 81.6131 224.851 81.2718 224.552C80.9731 224.211 80.8238 223.827 80.8238 223.4V181.8C80.8238 181.331 80.9731 180.947 81.2718 180.648C81.6131 180.349 81.9971 180.2 82.4238 180.2H101.944C107.32 180.2 111.309 181.309 113.912 183.528C116.557 185.704 117.88 188.819 117.88 192.872C117.88 195.005 117.325 196.819 116.216 198.312C115.149 199.763 113.933 200.829 112.568 201.512C114.317 202.323 115.789 203.624 116.984 205.416C118.178 207.208 118.776 209.213 118.776 211.432C118.776 215.699 117.368 219.027 114.552 221.416C111.736 223.805 107.725 225 102.52 225H82.4238ZM100.664 197.992C102.37 197.992 103.672 197.565 104.568 196.712C105.464 195.816 105.912 194.643 105.912 193.192C105.912 191.784 105.464 190.653 104.568 189.8C103.672 188.947 102.37 188.52 100.664 188.52H92.3438V197.992H100.664ZM101.24 216.68C102.989 216.68 104.354 216.168 105.336 215.144C106.317 214.12 106.808 212.883 106.808 211.432C106.808 209.896 106.317 208.637 105.336 207.656C104.354 206.632 102.989 206.12 101.24 206.12H92.3438V216.68H101.24ZM126.782 225C126.356 225 125.972 224.851 125.63 224.552C125.332 224.211 125.182 223.827 125.182 223.4V181.16C125.182 180.691 125.332 180.307 125.63 180.008C125.972 179.709 126.356 179.56 126.782 179.56H134.334C134.804 179.56 135.188 179.709 135.486 180.008C135.785 180.307 135.934 180.691 135.934 181.16V223.4C135.934 223.869 135.785 224.253 135.486 224.552C135.188 224.851 134.804 225 134.334 225H126.782ZM159.239 225.64C153.948 225.64 149.873 224.381 147.015 221.864C144.156 219.347 142.599 215.805 142.343 211.24C142.3 210.685 142.279 209.725 142.279 208.36C142.279 206.995 142.3 206.035 142.343 205.48C142.599 200.957 144.199 197.437 147.143 194.92C150.087 192.36 154.119 191.08 159.239 191.08C164.401 191.08 168.455 192.36 171.399 194.92C174.343 197.437 175.943 200.957 176.199 205.48C176.241 206.035 176.263 206.995 176.263 208.36C176.263 209.725 176.241 210.685 176.199 211.24C175.943 215.805 174.385 219.347 171.527 221.864C168.668 224.381 164.572 225.64 159.239 225.64ZM159.239 217.832C161.116 217.832 162.503 217.277 163.399 216.168C164.295 215.016 164.807 213.267 164.935 210.92C164.977 210.493 164.999 209.64 164.999 208.36C164.999 207.08 164.977 206.227 164.935 205.8C164.807 203.496 164.273 201.768 163.335 200.616C162.439 199.464 161.073 198.888 159.239 198.888C155.697 198.888 153.82 201.192 153.607 205.8L153.543 208.36L153.607 210.92C153.692 213.267 154.183 215.016 155.079 216.168C156.017 217.277 157.404 217.832 159.239 217.832ZM198.94 239.08C194.886 239.08 191.601 238.419 189.084 237.096C186.566 235.773 184.753 234.259 183.644 232.552C182.577 230.845 182.044 229.416 182.044 228.264C182.044 227.88 182.214 227.539 182.556 227.24C182.897 226.941 183.281 226.792 183.708 226.792H191.836C192.262 226.792 192.582 226.877 192.796 227.048C193.052 227.261 193.286 227.603 193.5 228.072C193.926 229.053 194.502 229.821 195.228 230.376C195.953 230.973 197.084 231.272 198.62 231.272C200.582 231.272 202.033 230.781 202.972 229.8C203.91 228.861 204.38 227.261 204.38 225V220.712C202.204 223.101 199.089 224.296 195.036 224.296C190.726 224.296 187.42 223.037 185.116 220.52C182.854 217.96 181.617 214.269 181.404 209.448L181.34 207.72C181.34 202.557 182.492 198.504 184.796 195.56C187.1 192.573 190.513 191.08 195.036 191.08C197.212 191.08 199.132 191.507 200.796 192.36C202.46 193.171 203.868 194.28 205.02 195.688V193.32C205.02 192.851 205.169 192.467 205.468 192.168C205.809 191.869 206.193 191.72 206.62 191.72H213.98C214.449 191.72 214.833 191.891 215.132 192.232C215.473 192.531 215.644 192.893 215.644 193.32V224.104C215.644 228.968 214.193 232.68 211.292 235.24C208.39 237.8 204.273 239.08 198.94 239.08ZM198.492 215.976C200.412 215.976 201.841 215.4 202.78 214.248C203.718 213.053 204.252 211.56 204.38 209.768C204.422 209.469 204.444 208.808 204.444 207.784C204.444 206.803 204.422 206.163 204.38 205.864C204.294 204.072 203.761 202.6 202.78 201.448C201.841 200.253 200.412 199.656 198.492 199.656C196.486 199.656 195.036 200.253 194.14 201.448C193.244 202.643 192.753 204.285 192.668 206.376L192.604 207.784C192.604 210.301 193.03 212.307 193.884 213.8C194.737 215.251 196.273 215.976 198.492 215.976ZM239.502 239.08C235.449 239.08 232.164 238.419 229.646 237.096C227.129 235.773 225.316 234.259 224.206 232.552C223.14 230.845 222.606 229.416 222.606 228.264C222.606 227.88 222.777 227.539 223.118 227.24C223.46 226.941 223.844 226.792 224.27 226.792H232.398C232.825 226.792 233.145 226.877 233.358 227.048C233.614 227.261 233.849 227.603 234.062 228.072C234.489 229.053 235.065 229.821 235.79 230.376C236.516 230.973 237.646 231.272 239.182 231.272C241.145 231.272 242.596 230.781 243.534 229.8C244.473 228.861 244.942 227.261 244.942 225V220.712C242.766 223.101 239.652 224.296 235.598 224.296C231.289 224.296 227.982 223.037 225.678 220.52C223.417 217.96 222.18 214.269 221.966 209.448L221.902 207.72C221.902 202.557 223.054 198.504 225.358 195.56C227.662 192.573 231.076 191.08 235.598 191.08C237.774 191.08 239.694 191.507 241.358 192.36C243.022 193.171 244.43 194.28 245.582 195.688V193.32C245.582 192.851 245.732 192.467 246.03 192.168C246.372 191.869 246.756 191.72 247.182 191.72H254.542C255.012 191.72 255.396 191.891 255.694 192.232C256.036 192.531 256.206 192.893 256.206 193.32V224.104C256.206 228.968 254.756 232.68 251.854 235.24C248.953 237.8 244.836 239.08 239.502 239.08ZM239.054 215.976C240.974 215.976 242.404 215.4 243.342 214.248C244.281 213.053 244.814 211.56 244.942 209.768C244.985 209.469 245.006 208.808 245.006 207.784C245.006 206.803 244.985 206.163 244.942 205.864C244.857 204.072 244.324 202.6 243.342 201.448C242.404 200.253 240.974 199.656 239.054 199.656C237.049 199.656 235.598 200.253 234.702 201.448C233.806 202.643 233.316 204.285 233.23 206.376L233.166 207.784C233.166 210.301 233.593 212.307 234.446 213.8C235.3 215.251 236.836 215.976 239.054 215.976ZM279.105 225.64C273.985 225.64 269.953 224.253 267.009 221.48C264.065 218.707 262.529 214.675 262.401 209.384V207.144C262.571 202.109 264.129 198.184 267.073 195.368C270.059 192.509 274.049 191.08 279.041 191.08C282.667 191.08 285.718 191.827 288.193 193.32C290.71 194.771 292.587 196.776 293.825 199.336C295.105 201.896 295.745 204.84 295.745 208.168V209.704C295.745 210.131 295.595 210.515 295.297 210.856C294.998 211.155 294.614 211.304 294.145 211.304H273.665V211.752C273.75 213.757 274.241 215.379 275.137 216.616C276.033 217.853 277.334 218.472 279.041 218.472C280.107 218.472 280.982 218.259 281.665 217.832C282.347 217.363 282.966 216.808 283.521 216.168C283.905 215.699 284.203 215.421 284.417 215.336C284.673 215.208 285.057 215.144 285.569 215.144H293.505C293.889 215.144 294.209 215.272 294.465 215.528C294.763 215.741 294.913 216.04 294.913 216.424C294.913 217.533 294.273 218.813 292.993 220.264C291.755 221.715 289.942 222.973 287.553 224.04C285.163 225.107 282.347 225.64 279.105 225.64ZM284.481 204.968V204.84C284.481 202.749 283.99 201.107 283.009 199.912C282.07 198.675 280.747 198.056 279.041 198.056C277.377 198.056 276.054 198.675 275.073 199.912C274.134 201.107 273.665 202.749 273.665 204.84V204.968H284.481ZM303.345 225C302.875 225 302.491 224.851 302.193 224.552C301.894 224.253 301.745 223.869 301.745 223.4V193.32C301.745 192.851 301.894 192.467 302.193 192.168C302.491 191.869 302.875 191.72 303.345 191.72H310.705C311.174 191.72 311.558 191.891 311.857 192.232C312.198 192.531 312.369 192.893 312.369 193.32V195.88C314.715 193.107 317.873 191.72 321.841 191.72H324.657C325.126 191.72 325.51 191.869 325.809 192.168C326.107 192.467 326.257 192.851 326.257 193.32V199.912C326.257 200.339 326.107 200.723 325.809 201.064C325.51 201.363 325.126 201.512 324.657 201.512H318.449C316.699 201.512 315.334 202.003 314.353 202.984C313.414 203.923 312.945 205.267 312.945 207.016V223.4C312.945 223.869 312.774 224.253 312.433 224.552C312.134 224.851 311.75 225 311.281 225H303.345ZM350.327 225.64C344.311 225.64 339.597 224.168 336.183 221.224C332.813 218.28 331.127 213.843 331.127 207.912V181.8C331.127 181.331 331.277 180.947 331.575 180.648C331.917 180.349 332.301 180.2 332.727 180.2H340.983C341.453 180.2 341.837 180.349 342.135 180.648C342.477 180.947 342.647 181.331 342.647 181.8V207.848C342.647 210.621 343.287 212.712 344.567 214.12C345.89 215.485 347.789 216.168 350.263 216.168C352.695 216.168 354.573 215.464 355.895 214.056C357.218 212.648 357.879 210.579 357.879 207.848V181.8C357.879 181.331 358.029 180.947 358.327 180.648C358.669 180.349 359.053 180.2 359.479 180.2H367.799C368.269 180.2 368.653 180.349 368.951 180.648C369.25 180.947 369.399 181.331 369.399 181.8V207.912C369.399 213.843 367.693 218.28 364.279 221.224C360.909 224.168 356.258 225.64 350.327 225.64ZM379.486 225C379.06 225 378.676 224.851 378.334 224.552C378.036 224.211 377.886 223.827 377.886 223.4V181.8C377.886 181.331 378.036 180.947 378.334 180.648C378.676 180.349 379.06 180.2 379.486 180.2H397.406C402.868 180.2 407.156 181.459 410.27 183.976C413.428 186.493 415.006 190.163 415.006 194.984C415.006 199.763 413.449 203.368 410.334 205.8C407.22 208.189 402.91 209.384 397.406 209.384H389.79V223.4C389.79 223.869 389.62 224.253 389.278 224.552C388.98 224.851 388.596 225 388.126 225H379.486ZM397.086 200.552C398.964 200.552 400.436 200.083 401.502 199.144C402.569 198.163 403.102 196.733 403.102 194.856C403.102 193.107 402.59 191.72 401.566 190.696C400.585 189.629 399.092 189.096 397.086 189.096H389.598V200.552H397.086Z" fill="white"/>
<path d="M180.205 326C179.778 326 179.394 325.851 179.053 325.552C178.754 325.211 178.605 324.827 178.605 324.4V282.8C178.605 282.331 178.754 281.947 179.053 281.648C179.394 281.349 179.778 281.2 180.205 281.2H209.645C210.114 281.2 210.498 281.349 210.797 281.648C211.096 281.947 211.245 282.331 211.245 282.8V289.264C211.245 289.691 211.096 290.075 210.797 290.416C210.498 290.715 210.114 290.864 209.645 290.864H189.869V300.272H208.365C208.834 300.272 209.218 300.443 209.517 300.784C209.816 301.083 209.965 301.467 209.965 301.936V308.336C209.965 308.763 209.816 309.147 209.517 309.488C209.218 309.787 208.834 309.936 208.365 309.936H189.869V324.4C189.869 324.869 189.72 325.253 189.421 325.552C189.122 325.851 188.738 326 188.269 326H180.205ZM218.501 326C218.032 326 217.648 325.851 217.349 325.552C217.05 325.253 216.901 324.869 216.901 324.4V294.32C216.901 293.851 217.05 293.467 217.349 293.168C217.648 292.869 218.032 292.72 218.501 292.72H225.861C226.33 292.72 226.714 292.891 227.013 293.232C227.354 293.531 227.525 293.893 227.525 294.32V296.88C229.872 294.107 233.029 292.72 236.997 292.72H239.813C240.282 292.72 240.666 292.869 240.965 293.168C241.264 293.467 241.413 293.851 241.413 294.32V300.912C241.413 301.339 241.264 301.723 240.965 302.064C240.666 302.363 240.282 302.512 239.813 302.512H233.605C231.856 302.512 230.49 303.003 229.509 303.984C228.57 304.923 228.101 306.267 228.101 308.016V324.4C228.101 324.869 227.93 325.253 227.589 325.552C227.29 325.851 226.906 326 226.437 326H218.501ZM261.011 326.64C255.891 326.64 251.859 325.253 248.915 322.48C245.971 319.707 244.435 315.675 244.307 310.384V308.144C244.478 303.109 246.035 299.184 248.979 296.368C251.966 293.509 255.955 292.08 260.947 292.08C264.574 292.08 267.624 292.827 270.099 294.32C272.616 295.771 274.494 297.776 275.731 300.336C277.011 302.896 277.651 305.84 277.651 309.168V310.704C277.651 311.131 277.502 311.515 277.203 311.856C276.904 312.155 276.52 312.304 276.051 312.304H255.571V312.752C255.656 314.757 256.147 316.379 257.043 317.616C257.939 318.853 259.24 319.472 260.947 319.472C262.014 319.472 262.888 319.259 263.571 318.832C264.254 318.363 264.872 317.808 265.427 317.168C265.811 316.699 266.11 316.421 266.323 316.336C266.579 316.208 266.963 316.144 267.475 316.144H275.411C275.795 316.144 276.115 316.272 276.371 316.528C276.67 316.741 276.819 317.04 276.819 317.424C276.819 318.533 276.179 319.813 274.899 321.264C273.662 322.715 271.848 323.973 269.459 325.04C267.07 326.107 264.254 326.64 261.011 326.64ZM266.387 305.968V305.84C266.387 303.749 265.896 302.107 264.915 300.912C263.976 299.675 262.654 299.056 260.947 299.056C259.283 299.056 257.96 299.675 256.979 300.912C256.04 302.107 255.571 303.749 255.571 305.84V305.968H266.387ZM299.011 326.64C293.891 326.64 289.859 325.253 286.915 322.48C283.971 319.707 282.435 315.675 282.307 310.384V308.144C282.478 303.109 284.035 299.184 286.979 296.368C289.966 293.509 293.955 292.08 298.947 292.08C302.574 292.08 305.624 292.827 308.099 294.32C310.616 295.771 312.494 297.776 313.731 300.336C315.011 302.896 315.651 305.84 315.651 309.168V310.704C315.651 311.131 315.502 311.515 315.203 311.856C314.904 312.155 314.52 312.304 314.051 312.304H293.571V312.752C293.656 314.757 294.147 316.379 295.043 317.616C295.939 318.853 297.24 319.472 298.947 319.472C300.014 319.472 300.888 319.259 301.571 318.832C302.254 318.363 302.872 317.808 303.427 317.168C303.811 316.699 304.11 316.421 304.323 316.336C304.579 316.208 304.963 316.144 305.475 316.144H313.411C313.795 316.144 314.115 316.272 314.371 316.528C314.67 316.741 314.819 317.04 314.819 317.424C314.819 318.533 314.179 319.813 312.899 321.264C311.662 322.715 309.848 323.973 307.459 325.04C305.07 326.107 302.254 326.64 299.011 326.64ZM304.387 305.968V305.84C304.387 303.749 303.896 302.107 302.915 300.912C301.976 299.675 300.654 299.056 298.947 299.056C297.283 299.056 295.96 299.675 294.979 300.912C294.04 302.107 293.571 303.749 293.571 305.84V305.968H304.387Z" fill="white"/>
</svg>
