<svg width="95" height="95" viewBox="0 0 95 95" fill="none" xmlns="http://www.w3.org/2000/svg">
<path d="M93.6663 47.5411C93.6663 73.0691 72.9729 93.7651 47.4396 93.7651C21.9196 93.7651 1.21289 73.0691 1.21289 47.5411C1.21289 22.0118 21.9196 1.31713 47.4396 1.31713C72.9729 1.31713 93.6663 22.0118 93.6663 47.5411Z" stroke="#F0D9B5" stroke-width="1.33333" stroke-miterlimit="10" stroke-dasharray="10.67 10.67"/>
<path d="M29.5872 67.645C29.7339 67.7343 29.8804 67.809 30.0404 67.877C28.8271 69.093 28.3605 70.969 28.9205 73.0677C29.8539 76.5263 33.3738 76.429 36.2671 76.1743C37.0271 78.2597 59.1071 78.0757 59.8404 75.909C62.8538 76.1023 66.0005 76.085 67.1205 72.6397C67.8005 70.5357 67.2004 68.669 65.8804 67.4783C66.0404 67.4063 66.1871 67.3263 66.3338 67.2317C67.7471 66.3077 68.0138 64.3223 67.8404 62.7837C67.5071 59.873 65.1738 58.0517 62.5338 57.6517C64.1071 55.7997 65.5204 53.869 66.3471 51.505C67.3738 48.5823 67.0938 44.957 66.0804 42.0703C64.1338 36.5263 57.2405 32.3343 51.4272 32.073C51.3872 31.0823 51.4139 30.0904 51.3872 29.0997C53.0539 29.0784 54.7205 29.165 56.3872 29.0677C56.6272 29.053 56.8271 28.9783 56.9738 28.8703C56.9871 28.865 57.0005 28.8597 57.0005 28.8517C57.0271 28.837 57.0538 28.825 57.0671 28.809C57.3338 28.6237 57.5205 28.3303 57.5205 27.913C57.5339 26.2677 57.6138 24.6197 57.6005 22.9703C57.6005 22.5863 57.4405 22.3064 57.2005 22.1264C57.0271 21.9544 56.7738 21.841 56.4404 21.8437C54.8804 21.8637 53.3205 21.8797 51.7605 21.897C51.7872 20.329 51.8671 18.7557 51.8671 17.181C51.8538 16.6437 51.5472 16.3077 51.1605 16.1677C51.1472 16.1637 51.1471 16.1624 51.1338 16.1597C51.1338 16.1584 51.1338 16.157 51.1338 16.1557C51.0005 16.1037 50.8538 16.069 50.7071 16.053C49.8938 15.9783 49.0671 16.0677 48.2404 16.0823C47.8538 16.0903 46.9205 16.0997 46.5205 16.101C45.7072 16.105 44.8805 16.0344 44.0539 16.129C43.9072 16.1477 43.7738 16.185 43.6404 16.2383C43.6404 16.2383 43.6272 16.2397 43.6272 16.2437C43.6272 16.2463 43.6138 16.2503 43.6005 16.253C43.2271 16.401 42.9205 16.7437 42.9338 17.2823C42.9605 18.8557 43.0805 20.4237 43.1338 21.9944C41.5738 22.013 40.0139 22.0303 38.4539 22.049C38.1205 22.0517 37.8805 22.1677 37.6938 22.3463C37.4672 22.5317 37.3205 22.8144 37.3205 23.1984C37.3472 24.8477 37.4671 26.4943 37.5071 28.1397C37.5204 28.553 37.7205 28.845 37.9872 29.021C38.0005 29.0397 38.0271 29.0504 38.0404 29.0624C38.0538 29.0717 38.0671 29.0783 38.0804 29.0823C38.2271 29.185 38.4271 29.257 38.6671 29.2677C40.3338 29.3277 42.0005 29.2037 43.6671 29.1877C43.6671 30.177 43.7204 31.1677 43.7071 32.157C37.7204 32.537 31.4405 36.9317 29.2671 42.4837C28.1471 45.3757 28.3071 49.0117 29.2138 51.9223C29.9471 54.2477 31.5071 56.189 33.1471 57.9863C30.5338 58.445 28.2404 60.321 27.9738 63.233C27.8271 64.7743 28.1472 66.753 29.5872 67.645Z" fill="#F6F3EA"/>
</svg>
